HIERARCHY
ROOT hip
{
	OFFSET 0.000000 0.000000 0.000000
	CHANNELS 6 Xposition Yposition Zposition Zrotation Yrotation Xrotation 
	JOINT lhipjoint
	{
		OFFSET 0.000000 0.000000 0.000000
		CHANNELS 3 Zrotation Yrotation Xrotation
		JOINT lfemur
		{
			OFFSET 1.363060 -1.794630 0.839290
			CHANNELS 3 Zrotation Yrotation Xrotation
			JOINT ltibia
			{
				OFFSET 2.448110 -6.726130 0.000000
				CHANNELS 3 Zrotation Yrotation Xrotation
				JOINT lfoot
				{
					OFFSET 2.562200 -7.039590 0.000000
					CHANNELS 3 Zrotation Yrotation Xrotation
					JOINT ltoes
					{
						OFFSET 0.157640 -0.433110 2.322550
						CHANNELS 3 Zrotation Yrotation Xrotation
						End Site
						{
							OFFSET 0.000000 0.000000 0.000000
						}
					}
				}
			}
		}
	}
	JOINT rhipjoint
	{
		OFFSET 0.000000 0.000000 0.000000
		CHANNELS 3 Zrotation Yrotation Xrotation
		JOINT rfemur
		{
			OFFSET -1.305520 -1.794630 0.839290
			CHANNELS 3 Zrotation Yrotation Xrotation
			JOINT rtibia
			{
				OFFSET -2.542530 -6.985550 0.000000
				CHANNELS 3 Zrotation Yrotation Xrotation
				JOINT rfoot
				{
					OFFSET -2.568260 -7.056230 0.000000
					CHANNELS 3 Zrotation Yrotation Xrotation
					JOINT rtoes
					{
						OFFSET -0.164730 -0.452590 2.363150
						CHANNELS 3 Zrotation Yrotation Xrotation
						End Site
						{
							OFFSET 0.000000 0.000000 0.000000
						}
					}
				}
			}
		}
	}
	JOINT lowerback
	{
		OFFSET 0.000000 0.000000 0.000000
		CHANNELS 3 Zrotation Yrotation Xrotation
		JOINT upperback
		{
			OFFSET 0.028270 2.035590 -0.193380
			CHANNELS 3 Zrotation Yrotation Xrotation
			JOINT thorax
			{
				OFFSET 0.056720 2.048850 -0.042750
				CHANNELS 3 Zrotation Yrotation Xrotation
				JOINT lowerneck
				{
					OFFSET 0.000000 0.000000 0.000000
					CHANNELS 3 Zrotation Yrotation Xrotation
					JOINT upperneck
					{
						OFFSET -0.054170 1.746240 0.172020
						CHANNELS 3 Zrotation Yrotation Xrotation
						JOINT head
						{
							OFFSET 0.104070 1.761360 -0.123970
							CHANNELS 3 Zrotation Yrotation Xrotation
							End Site
							{
								OFFSET 0.000000 0.000000 0.000000
							}
						}
					}
				}
				JOINT lclavicle
				{
					OFFSET 0.000000 0.000000 0.000000
					CHANNELS 3 Zrotation Yrotation Xrotation
					JOINT lhumerus
					{
						OFFSET 3.362410 1.200890 -0.311210
						CHANNELS 3 Zrotation Yrotation Xrotation
						JOINT lradius
						{
							OFFSET 4.983000 -0.000000 -0.000000
							CHANNELS 3 Zrotation Yrotation Xrotation
							JOINT lwrist
							{
								OFFSET 3.483560 -0.000000 -0.000000
								CHANNELS 3 Zrotation Yrotation Xrotation
								JOINT lhand
								{
									OFFSET 0.000000 0.000000 0.000000
									CHANNELS 3 Zrotation Yrotation Xrotation
									JOINT lfingers
									{
										OFFSET 0.715260 -0.000000 -0.000000
										CHANNELS 3 Zrotation Yrotation Xrotation
										End Site
										{
											OFFSET 0.000000 0.000000 0.000000
										}
									}
								}
								JOINT lthumb
								{
									OFFSET 0.000000 0.000000 0.000000
									CHANNELS 3 Zrotation Yrotation Xrotation
									End Site
									{
										OFFSET 0.000000 0.000000 0.000000
									}
								}
							}
						}
					}
				}
				JOINT rclavicle
				{
					OFFSET 0.000000 0.000000 0.000000
					CHANNELS 3 Zrotation Yrotation Xrotation
					JOINT rhumerus
					{
						OFFSET -3.136600 1.374050 -0.404650
						CHANNELS 3 Zrotation Yrotation Xrotation
						JOINT rradius
						{
							OFFSET -5.241900 -0.000000 -0.000000
							CHANNELS 3 Zrotation Yrotation Xrotation
							JOINT rwrist
							{
								OFFSET -3.444170 -0.000000 -0.000000
								CHANNELS 3 Zrotation Yrotation Xrotation
								JOINT rhand
								{
									OFFSET 0.000000 0.000000 0.000000
									CHANNELS 3 Zrotation Yrotation Xrotation
									JOINT rfingers
									{
										OFFSET -0.622530 -0.000000 -0.000000
										CHANNELS 3 Zrotation Yrotation Xrotation
										End Site
										{
											OFFSET 0.000000 0.000000 0.000000
										}
									}
								}
								JOINT rthumb
								{
									OFFSET 0.000000 0.000000 0.000000
									CHANNELS 3 Zrotation Yrotation Xrotation
									End Site
									{
										OFFSET 0.000000 0.000000 0.000000
									}
								}
							}
						}
					}
				}
			}
		}
	}
}
MOTION
Frames: 7
Frame Time: 0.008333
1.624500 17.181806 3.123053 174.278960 -5.142650 -179.428506 -5.965661 -1.436711 -0.944297 -12.940305 -17.902974 -54.565802 27.679059 15.381739 113.297393 0.785333 -10.085364 -9.801636 0.652000 -5.164900 -14.379600 3.029368 3.137070 -2.901148 10.229172 2.878679 -14.273928 -5.174221 -12.819229 34.552366 0.289586 17.745420 -3.541360 -0.230600 3.090500 -8.530800 17.586582 0.792373 24.570658 1.663193 1.587014 -1.253251 -8.727942 0.441122 9.842613 2.001865 8.232741 -8.958217 -10.992175 15.123473 14.378655 -5.586900 7.391600 5.132100 -5.857180 -1.688066 3.197009 -71.391026 1.827717 34.880742 38.415419 -47.696679 -17.142013 0.108117 1.887506 20.458636 39.879100 -11.547177 -11.497600 -7.125000 0.000000 0.000000 8.712100 12.252200 -6.745100 8.250452 4.285802 5.037870 61.164694 9.938483 15.666529 -25.148785 41.434931 -8.238232 0.214865 -1.842018 -3.771850 -10.203506 5.323887 -1.306000 7.125000 0.000000 0.000000 12.020600 -22.702700 6.591900 
1.621902 17.204380 3.141954 173.755933 -4.843579 -179.913307 -6.031249 -1.449111 -0.900479 -12.450279 -18.422735 -56.533394 28.122763 15.035352 114.880905 0.822548 -10.425936 -10.268410 0.809500 -5.741900 -16.037200 3.068961 3.323552 -3.058172 9.648095 2.754060 -13.213354 -4.999581 -12.749582 33.896050 0.312867 17.637789 -3.292837 -0.242000 3.165600 -8.740100 17.355959 0.855643 25.839621 1.615575 1.721354 -1.157374 -8.774029 0.441833 9.743970 1.839181 8.296611 -9.191640 -11.114546 15.219122 13.966067 -5.577900 7.397700 5.073000 -5.922498 -1.722941 3.206121 -71.201852 2.013774 34.234860 39.254495 -48.170538 -17.771957 0.074873 1.890737 20.424588 40.730458 -11.303384 -11.660900 -7.125000 0.000000 0.000000 9.327500 12.344900 -7.216200 8.284556 4.261800 5.037718 60.556030 10.476408 15.395256 -25.343232 41.499882 -8.343600 0.211555 -1.825497 -3.974955 -10.231978 5.327052 -1.306200 7.125000 0.000000 0.000000 12.007400 -22.715100 6.580800 
1.619304 17.226864 3.162467 173.209905 -4.530063 179.598529 -6.097649 -1.468162 -0.856787 -11.802471 -18.919560 -58.497429 28.548996 14.689217 116.433090 0.852824 -10.922748 -10.588932 0.902800 -6.055100 -16.944300 3.116343 3.516086 -3.216332 9.045096 2.669109 -12.139567 -4.823854 -12.672825 33.228793 0.330144 17.491524 -3.059991 -0.253300 3.238000 -8.942200 17.098579 0.930030 27.134912 1.567010 1.849574 -1.057349 -8.816693 0.437051 9.662654 1.650627 8.350776 -9.498832 -11.227668 15.303810 13.562611 -5.553800 7.391800 5.028800 -5.994502 -1.757787 3.212923 -70.998344 2.157239 33.607361 40.202639 -48.683401 -18.478123 0.039135 1.893338 20.173194 41.448868 -11.086877 -11.787800 -7.125000 0.000000 0.000000 9.848900 12.435100 -7.613000 8.319126 4.236806 5.034246 59.921985 11.026118 15.093518 -25.579016 41.592904 -8.469883 0.209112 -1.807552 -4.160973 -10.242561 5.318285 -1.301800 7.125000 0.000000 0.000000 12.007000 -22.741600 6.573100 
1.617961 17.246751 3.184862 172.660347 -4.178157 179.113044 -6.164377 -1.488632 -0.812435 -10.916990 -19.339589 -60.470364 28.960199 14.343459 117.964317 0.861676 -11.698545 -10.549925 0.872400 -5.955200 -16.654400 3.169309 3.704149 -3.367783 8.459365 2.724654 -11.074420 -4.661973 -12.598633 32.605704 0.335689 17.279123 -2.871821 -0.263300 3.300900 -9.117700 16.805963 1.018488 28.470280 1.518918 1.982122 -0.958508 -8.845991 0.427335 9.561679 1.487364 8.405145 -9.814927 -11.375506 15.394545 13.164111 -5.546100 7.385600 5.000500 -6.064042 -1.792537 3.217113 -70.796452 2.282199 32.968364 41.238966 -49.217707 -19.249853 0.002164 1.895835 19.779112 42.044089 -10.875068 -11.864600 -7.125000 0.000000 0.000000 10.287900 12.549800 -7.938700 8.355956 4.220608 5.029402 59.294192 11.558551 14.774522 -25.866035 41.722951 -8.621487 0.203806 -1.790919 -4.264760 -10.276958 5.336908 -1.305600 7.125000 0.000000 0.000000 11.987300 -22.738900 6.562700 
1.616348 17.264039 3.207973 172.100335 -3.801433 178.621424 -6.232911 -1.513001 -0.766153 -9.834442 -19.618625 -62.451984 29.367238 13.994743 119.508135 0.852839 -12.625763 -10.296016 0.812900 -5.753500 -16.070800 3.231636 3.888328 -3.512009 7.866202 2.863952 -10.037613 -4.516001 -12.538564 32.059030 0.335167 17.040400 -2.705014 -0.275600 3.376900 -9.330000 16.505946 1.115602 29.830496 1.470402 2.109017 -0.860193 -8.881635 0.413989 9.454488 1.297617 8.456506 -10.154667 -11.495883 15.477983 12.797271 -5.518400 7.374600 4.980500 -6.139011 -1.830384 3.220390 -70.552643 2.436603 32.367947 42.413046 -49.799478 -20.127008 -0.037487 1.896768 19.296394 42.626873 -10.653845 -11.924000 -7.125000 0.000000 0.000000 10.720600 12.681300 -8.254800 8.392011 4.207910 5.022169 58.655762 12.065041 14.443586 -26.187293 41.879044 -8.793549 0.194226 -1.776981 -4.317548 -10.374869 5.399309 -1.325800 7.125000 0.000000 0.000000 11.920400 -22.688400 6.538500 
1.615273 17.276401 3.231442 171.569628 -3.415610 178.116940 -6.301136 -1.538237 -0.717181 -8.528882 -19.702964 -64.416842 29.776170 13.641066 121.085824 0.833615 -13.596901 -9.985646 0.818200 -5.771900 -16.123900 3.295941 4.060579 -3.646269 7.341074 3.139593 -9.020870 -4.393984 -12.499876 31.617450 0.320125 16.740664 -2.661467 -0.290600 3.466600 -9.580700 16.228906 1.218168 31.225801 1.423278 2.237223 -0.765295 -8.932563 0.402133 9.325884 1.125078 8.505255 -10.489181 -11.591163 15.550727 12.454033 -5.484700 7.361500 4.965200 -6.214830 -1.870869 3.222366 -70.247678 2.639783 31.818803 43.738388 -50.429618 -21.125123 -0.079287 1.895340 18.749617 43.273581 -10.451815 -12.023800 -7.125000 0.000000 0.000000 11.190500 12.771900 -8.609300 8.429926 4.204147 5.012845 58.029163 12.507725 14.115433 -26.563566 42.077070 -8.995737 0.185266 -1.765691 -4.300758 -10.507129 5.440323 -1.347400 7.125000 0.000000 0.000000 11.828300 -22.655600 6.494900 
1.613213 17.285000 3.253210 171.005629 -2.991440 177.625230 -6.353514 -1.579900 -0.682670 -7.107206 -19.555840 -66.309258 30.193137 13.280404 122.713926 0.803582 -14.635759 -9.640247 0.883600 -5.992100 -16.761500 3.386314 4.231455 -3.782185 6.758386 3.494476 -8.032589 -4.280832 -12.483348 31.244256 0.303896 16.422156 -2.624765 -0.297300 3.506100 -9.691100 15.849077 1.361379 32.768171 1.301753 2.370150 -0.591566 -8.857827 0.374338 8.964444 0.962477 8.584083 -10.713439 -11.718496 15.637240 11.997283 -5.477200 7.355500 4.920400 -6.310435 -1.954137 3.243080 -69.895874 2.837788 31.277212 45.164984 -51.062813 -22.212403 -0.119211 1.894246 18.155899 44.015543 -10.308508 -12.220000 -7.125000 0.000000 0.000000 11.706200 12.752400 -9.028200 8.461744 4.220661 5.018696 57.423520 12.892946 13.789551 -27.050390 42.334739 -9.249491 0.176669 -1.759794 -4.235481 -10.703031 5.462931 -1.375500 7.125000 0.000000 0.000000 11.689700 -22.633100 6.421700 
